<?xml version="1.0" encoding="utf-8"?>
<!-- Generator: Adobe Illustrator 21.0.0, SVG Export Plug-In . SVG Version: 6.00 Build 0)  -->
<svg version="1.1" id="Layer_1" xmlns="http://www.w3.org/2000/svg" xmlns:xlink="http://www.w3.org/1999/xlink" x="0px" y="0px"
	 viewBox="0 0 174 101.9" style="enable-background:new 0 0 174 101.9;" xml:space="preserve">
<style type="text/css">
	.st0{fill:#0BC0D3;stroke:#0BC0D3;stroke-width:3;stroke-miterlimit:10;}
	.st1{fill:#FFFFFF;}
	.st2{fill:#0BC0D3;}
</style>
<g>
	<path class="st0" d="M53,1.5c29.2,0,68.1,61.9,47.6,82.4c-19.9,19.9-79.4,23.9-95.2,0S24.9,1.5,53,1.5z"/>
	<g>
		<path class="st1" d="M52.5,41.5c4.9,0,9,1.5,12.2,4.4c3.2,2.9,4.7,6.6,4.7,11.2c0,4.7-1.6,8.4-4.7,11.4c-3.2,2.9-7.2,4.4-12.2,4.4
			H38.6V41.5H52.5z M52.5,65.8c2.5,0,4.7-0.8,6.4-2.5c1.7-1.7,2.6-3.8,2.6-6.3c0-2.4-0.9-4.5-2.6-6.1c-1.7-1.7-3.9-2.5-6.4-2.5h-6.1
			v17.3H52.5z"/>
		<path class="st1" d="M120.9,55.2h-13.5c-1.7,0-3.1,1.4-3.1,3.1c0,1.7,1.4,3.1,3.1,3.1h5.7c-1.7,3.2-4.3,4.8-8,4.8
			c-2.7,0-4.9-0.9-6.6-2.6c-1.7-1.7-2.5-3.8-2.5-6.4c0-2.8,0.8-5,2.5-6.7c1.7-1.7,3.8-2.6,6.5-2.6c3.7,0,6.1,1.6,7.3,4.7h8.2
			c-0.6-3.6-2.4-6.5-5.3-8.6c-2.9-2.1-6.4-3.2-10.3-3.2c-4.8,0-8.8,1.6-12,4.7c-3.2,3.1-4.7,7.1-4.7,11.9c0,4.6,1.6,8.3,4.7,11.4
			c3.1,3,7,4.5,11.7,4.6l0,0c0,0,0.1,0,0.1,0c0.1,0,0.1,0,0.2,0c0.4,0,0.8,0,1.2,0C123.5,72.5,120.9,55.2,120.9,55.2z"/>
		<path class="st1" d="M74.9,45c0-2.1,1.7-3.8,3.8-3.8c2.1,0,3.8,1.7,3.8,3.8v24.4c0,2.1-1.7,3.8-3.8,3.8c-2.1,0-3.8-1.7-3.8-3.8V45
			z"/>
		<path class="st1" d="M127.4,45c0-2.1,1.7-3.8,3.8-3.8s3.8,1.7,3.8,3.8v24.4c0,2.1-1.7,3.8-3.8,3.8s-3.8-1.7-3.8-3.8V45z"/>
		<path class="st2" d="M163.4,57.1l9.6-9.5c1.5-1.5,1.5-3.9,0-5.4c-1.5-1.5-3.9-1.5-5.4,0l-9.6,9.5L163.4,57.1z"/>
		<path class="st1" d="M172.9,66.7l-24.4-24.4c-1.5-1.5-3.9-1.5-5.4,0c-1.5,1.5-1.5,3.9,0,5.4l9.5,9.5l-9.5,9.5
			c-1.5,1.5-1.5,3.9,0,5.4c1.5,1.5,3.9,1.5,5.4,0l9.5-9.5l9.5,9.5c1.5,1.5,3.9,1.5,5.4,0C174.4,70.6,174.4,68.2,172.9,66.7z"/>
	</g>
</g>
</svg>
