<?xml version="1.0" encoding="utf-8"?>
<!-- Generator: Adobe Illustrator 21.0.0, SVG Export Plug-In . SVG Version: 6.00 Build 0)  -->
<svg version="1.1" id="Layer_1" xmlns="http://www.w3.org/2000/svg" xmlns:xlink="http://www.w3.org/1999/xlink" x="0px" y="0px"
	 viewBox="0 0 403.5 131" style="enable-background:new 0 0 403.5 131;" xml:space="preserve">
<style type="text/css">
	.st0{fill:#FFFFFF;}
	.st1{fill:#F16724;}
	.st2{fill:#6DCDF4;}
</style>
<g>
	<g>
		<path class="st0" d="M180.9,101.4h-12.8V81.6c-3.1,1.9-6.6,2.8-10.4,2.8c-5.3,0-9.8-1.9-13.5-5.8c-3.7-3.9-5.5-8.6-5.5-14.2
			c0-5.7,1.8-10.4,5.5-14.2c3.7-3.9,8.2-5.8,13.5-5.8c3.9,0,7.4,1,10.4,2.8v-2h12.8V101.4z M168.1,70.4v-12
			c-2.1-2.4-4.7-3.6-7.9-3.6c-5.1,0-9.1,4.2-9.1,9.6c0,5.4,4,9.5,9.1,9.5C163.4,73.9,166,72.7,168.1,70.4z"/>
		<path class="st0" d="M229,83.6h-12.8v-2.5c-3.2,2.5-6.7,3.7-10.5,3.7c-4.9,0-8.9-1.6-11.9-4.7c-3-3.2-4.5-7.4-4.5-12.9V45.3h12.8
			v19.9c0,5.3,2.7,8.1,7,8.1c2.5,0,4.7-1.3,7-3.8V45.3H229V83.6z"/>
		<path class="st0" d="M275.7,68.2h-27.3c1.2,4.1,4.1,6.2,8.6,6.2c2.8,0,4.7-0.9,5.9-2.8h12.7c-1.9,7.9-9.3,12.9-18.7,12.9
			c-6.2,0-11.3-1.9-15.2-5.6c-3.9-3.7-5.8-8.5-5.8-14.5c0-5.9,1.9-10.7,5.6-14.4c3.8-3.7,8.8-5.6,14.9-5.6c5.6,0,10.3,1.8,14,5.4
			c3.7,3.6,5.5,8.1,5.5,13.8C276,65.7,275.9,67.2,275.7,68.2z M248.4,60.7h15.6c-0.7-4.3-3.2-6.4-7.6-6.4
			C252.1,54.3,249.4,56.4,248.4,60.7z"/>
		<path class="st0" d="M308.4,56.8c-5.8,0.2-10.1,1.8-13.2,4.8v22h-12.9V45.3h12.9v4.1c3.7-3.2,8.1-4.7,13.2-4.7V56.8z"/>
		<path class="st0" d="M347.5,50.1c3.9,3.7,5.9,8.5,5.9,14.3c0,5.9-2,10.8-5.9,14.6c-3.9,3.9-8.9,5.8-14.9,5.8
			c-6.1,0-11.1-1.9-15-5.8c-3.9-3.9-5.9-8.8-5.9-14.6c0-5.8,2-10.6,5.9-14.3c4-3.8,8.9-5.7,15-5.7C338.7,44.4,343.7,46.3,347.5,50.1
			z M341.3,64.5c0-5.1-3.6-9-8.6-9c-5.1,0-8.7,4-8.7,9c0,5.3,3.6,9.3,8.7,9.3C337.7,73.7,341.3,69.8,341.3,64.5z"/>
		<path class="st0" d="M362.9,33.2c0.1-2.1,1.6-3.6,3.7-3.6c2.1,0,3.6,1.7,3.7,3.6C370.6,38,362.6,38,362.9,33.2z M369.4,83.6h-5.5
			V47.1h5.5V83.6z"/>
		<path class="st0" d="M389.1,53.4c3.6-4.8,8.4-7.3,14.3-7.3v5.1c-6.2,0.2-10.9,3-14.3,8.5v23.9h-5.4V47.1h5.4V53.4z"/>
	</g>
	<g>
		<g>
			<path class="st1" d="M64.2,131c-15.2,0-53.1-36.9-62.2-65c-3.7-11.3-2.1-20,4.7-24.9c8-5.9,18,0.9,28.5,8.1
				C43.6,55,52.4,61,60.4,60.6c8.6-0.4,17.5-5.5,25.5-9.9c10.5-5.9,20.4-11.5,27-4.7c6.7,6.9,2.9,20.6-1.4,30.8
				C101.3,100.7,77,131,64.2,131z M13.4,42c-1.8,0-3.5,0.5-5,1.6C2.7,47.7,1.5,55,4.8,65.1C13.4,91.6,50.1,128,64.2,128
				c10.4,0,34.1-27.9,44.5-52.4c5.6-13.3,6.3-23,2-27.5c-4.7-4.8-11.9-1.3-23.4,5.2c-8.2,4.6-17.5,9.9-26.8,10.3
				c-9,0.4-18.2-5.8-27.1-11.9C26.1,46.7,19.1,42,13.4,42z"/>
		</g>
		<g>
			<path class="st1" d="M62.4,44.9C50.1,44.9,40,34.8,40,22.4C40,10.1,50.1,0,62.4,0c12.4,0,22.4,10.1,22.4,22.4
				C84.9,34.8,74.8,44.9,62.4,44.9z M62.4,3C51.7,3,43,11.7,43,22.4c0,10.7,8.7,19.4,19.4,19.4c10.7,0,19.4-8.7,19.4-19.4
				C81.9,11.7,73.2,3,62.4,3z"/>
		</g>
		<g id="t6sgs4.tif_3_">
			<g>
				<path class="st2" d="M26.5,83.5c0.8-1.3,1.3-1.4,2.8-0.9c9.1,2.7,18.2,5.5,27.4,8.1c0.9,0.3,1.5,0.7,2,1.4
					c1,1.5,2.4,2.1,4.2,1.8c1.1-0.2,1.8-0.8,2.4-1.7c0.6-0.9,1.4-1.3,2.4-1.6c9.2-2.7,18.3-5.4,27.5-8.2c1.5-0.4,2.6,0.4,2.5,1.8
					c-0.1,0.9-0.7,1.3-1.4,1.5c-2.9,0.9-5.8,1.7-8.6,2.6C81.4,90.3,75.2,92.1,69,94c-0.3,0.1-0.6,0.3-0.8,0.5c-3.2,4-9,4-12.2-0.1
					c-0.2-0.2-0.5-0.4-0.8-0.5c-9-2.7-18-5.3-27-8c-0.7-0.2-1.4-0.5-1.7-1.2C26.5,84.3,26.5,83.9,26.5,83.5z"/>
				<path class="st2" d="M61.8,88.7c-0.2-0.1-0.5-0.2-0.7-0.4c-10-6.4-20-12.8-30.1-19.3C31,69,30.8,69,30.8,68.9
					c-0.2-0.3-0.5-0.7-0.4-0.9c0.1-0.6,0.5-0.4,0.8-0.2c2.6,1.6,5.2,3.3,7.7,4.9c7.5,4.8,15,9.5,22.4,14.3c0.4,0.3,0.7,0.2,1.1,0
					c10-6.3,20.1-12.6,30.1-18.9c0.1-0.1,0.2-0.1,0.3-0.2c0.3-0.2,0.7-0.5,0.9,0.2c0.1,0.2-0.2,0.8-0.5,0.9c-2.5,1.6-5,3.2-7.5,4.7
					c-7.7,4.9-15.5,9.8-23.2,14.6C62.4,88.5,62.1,88.6,61.8,88.7z"/>
				<path class="st2" d="M61.8,91.2c-0.2-0.1-0.5-0.2-0.7-0.3C51.1,85.6,41,80.3,31,75c-0.3-0.2-0.8-0.3-0.6-1
					c0.2-0.7,0.6-0.2,0.9-0.1c9.9,5.2,19.8,10.4,29.7,15.7c0.6,0.3,1.1,0.3,1.7,0c10.1-5.3,20.1-10.5,30.2-15.7
					c0.1-0.1,0.3-0.2,0.4-0.2c0.2,0,0.4,0.2,0.6,0.2c-0.1,0.3-0.2,0.6-0.3,0.8c-0.1,0.2-0.3,0.2-0.5,0.3
					c-10.1,5.2-20.3,10.5-30.4,15.7C62.4,91,62.1,91.1,61.8,91.2z"/>
			</g>
		</g>
	</g>
</g>
</svg>
