<?xml version="1.0" encoding="utf-8"?>
<!-- Generator: Adobe Illustrator 21.0.0, SVG Export Plug-In . SVG Version: 6.00 Build 0)  -->
<svg version="1.1" id="Layer_1" xmlns="http://www.w3.org/2000/svg" xmlns:xlink="http://www.w3.org/1999/xlink" x="0px" y="0px"
	 viewBox="0 0 403.5 131" style="enable-background:new 0 0 403.5 131;" xml:space="preserve">
<style type="text/css">
	.st0{fill:#FFFFFF;}
	.st1{fill:#F16724;}
</style>
<g>
	<g>
		<path class="st0" d="M180.9,101.4h-12.8V81.6c-3.1,1.9-6.6,2.8-10.4,2.8c-5.3,0-9.8-1.9-13.5-5.8c-3.7-3.9-5.5-8.6-5.5-14.2
			c0-5.7,1.8-10.4,5.5-14.2c3.7-3.9,8.2-5.8,13.5-5.8c3.9,0,7.4,1,10.4,2.8v-2h12.8V101.4z M168.1,70.4v-12
			c-2.1-2.4-4.7-3.6-7.9-3.6c-5.1,0-9.1,4.2-9.1,9.6c0,5.4,4,9.5,9.1,9.5C163.4,73.9,166,72.7,168.1,70.4z"/>
		<path class="st0" d="M229,83.6h-12.8v-2.5c-3.2,2.5-6.7,3.7-10.5,3.7c-4.9,0-8.9-1.6-11.9-4.7c-3-3.2-4.5-7.4-4.5-12.9V45.3h12.8
			v19.9c0,5.3,2.7,8.1,7,8.1c2.5,0,4.7-1.3,7-3.8V45.3H229V83.6z"/>
		<path class="st0" d="M275.7,68.2h-27.3c1.2,4.1,4.1,6.2,8.6,6.2c2.8,0,4.7-0.9,5.9-2.8h12.7c-1.9,7.9-9.3,12.9-18.7,12.9
			c-6.2,0-11.3-1.9-15.2-5.6c-3.9-3.7-5.8-8.5-5.8-14.5c0-5.9,1.9-10.7,5.6-14.4c3.8-3.7,8.8-5.6,14.9-5.6c5.6,0,10.3,1.8,14,5.4
			c3.7,3.6,5.5,8.1,5.5,13.8C276,65.7,275.9,67.2,275.7,68.2z M248.4,60.7h15.6c-0.7-4.3-3.2-6.4-7.6-6.4
			C252.1,54.3,249.4,56.4,248.4,60.7z"/>
		<path class="st0" d="M308.4,56.8c-5.8,0.2-10.1,1.8-13.2,4.8v22h-12.9V45.3h12.9v4.1c3.7-3.2,8.1-4.7,13.2-4.7V56.8z"/>
		<path class="st0" d="M347.5,50.1c3.9,3.7,5.9,8.5,5.9,14.3c0,5.9-2,10.8-5.9,14.6c-3.9,3.9-8.9,5.8-14.9,5.8
			c-6.1,0-11.1-1.9-15-5.8c-3.9-3.9-5.9-8.8-5.9-14.6c0-5.8,2-10.6,5.9-14.3c4-3.8,8.9-5.7,15-5.7C338.7,44.4,343.7,46.3,347.5,50.1
			z M341.3,64.5c0-5.1-3.6-9-8.6-9c-5.1,0-8.7,4-8.7,9c0,5.3,3.6,9.3,8.7,9.3C337.7,73.7,341.3,69.8,341.3,64.5z"/>
		<path class="st0" d="M362.9,33.2c0.1-2.1,1.6-3.6,3.7-3.6c2.1,0,3.6,1.7,3.7,3.6C370.6,38,362.6,38,362.9,33.2z M369.4,83.6h-5.5
			V47.1h5.5V83.6z"/>
		<path class="st0" d="M389.1,53.4c3.6-4.8,8.4-7.3,14.3-7.3v5.1c-6.2,0.2-10.9,3-14.3,8.5v23.9h-5.4V47.1h5.4V53.4z"/>
	</g>
	<g>
		<g>
			<path class="st1" d="M62.4,44.9C50.1,44.9,40,34.8,40,22.4C40,10.1,50.1,0,62.4,0c12.4,0,22.4,10.1,22.4,22.4
				C84.9,34.8,74.8,44.9,62.4,44.9z"/>
		</g>
		<path class="st1" d="M112.8,46c-6.6-6.8-16.5-1.3-27,4.7c-7.9,4.5-16.9,9.5-25.5,9.9c-8,0.4-16.8-5.6-25.3-11.4
			c-10.5-7.2-20.4-14-28.5-8.1C-0.1,46.1-1.8,54.7,1.9,66c9.1,28,47,65,62.2,65c12.8,0,37.1-30.3,47.3-54.2
			C115.8,66.6,119.5,53,112.8,46z M31.2,67.8c2.6,1.6,5.2,3.3,7.7,4.9c7.5,4.8,15,9.5,22.4,14.3c0.4,0.3,0.7,0.2,1.1,0
			c10-6.3,20.1-12.6,30.1-18.9c0.1-0.1,0.2-0.1,0.3-0.2c0.3-0.2,0.7-0.5,0.9,0.2c0.1,0.2-0.2,0.8-0.5,0.9c-2.5,1.6-5,3.2-7.5,4.7
			c-7.7,4.9-15.5,9.8-23.2,14.6c-0.3,0.2-0.5,0.3-0.8,0.4c-0.2-0.1-0.5-0.2-0.7-0.4c-10-6.4-20-12.8-30.1-19.3
			C31,69,30.8,69,30.8,68.9c-0.2-0.3-0.5-0.7-0.4-0.9C30.5,67.4,30.8,67.5,31.2,67.8z M30.4,74c0.2-0.7,0.6-0.2,0.9-0.1
			c9.9,5.2,19.8,10.4,29.7,15.7c0.6,0.3,1.1,0.3,1.7,0c10.1-5.3,20.1-10.5,30.2-15.7c0.1-0.1,0.3-0.2,0.4-0.2c0.2,0,0.4,0.2,0.6,0.2
			c-0.1,0.3-0.2,0.6-0.3,0.8c-0.1,0.2-0.3,0.2-0.5,0.3c-10.1,5.2-20.3,10.5-30.4,15.7c-0.3,0.1-0.5,0.3-0.8,0.4
			c-0.2-0.1-0.5-0.2-0.7-0.3C51.1,85.6,41,80.3,31,75C30.6,74.8,30.1,74.7,30.4,74z M96.2,85.9c-2.9,0.9-5.8,1.7-8.6,2.6
			C81.4,90.3,75.2,92.1,69,94c-0.3,0.1-0.6,0.3-0.8,0.5c-3.2,4-9,4-12.2-0.1c-0.2-0.2-0.5-0.4-0.8-0.5c-9-2.7-18-5.3-27-8
			c-0.7-0.2-1.4-0.5-1.7-1.2c0-0.4,0-0.8,0-1.2c0.8-1.3,1.3-1.4,2.8-0.9c9.1,2.7,18.2,5.5,27.4,8.1c0.9,0.3,1.5,0.7,2,1.4
			c1,1.5,2.4,2.1,4.2,1.8c1.1-0.2,1.8-0.8,2.4-1.7c0.6-0.9,1.4-1.3,2.4-1.6c9.2-2.7,18.3-5.4,27.5-8.2c1.5-0.4,2.6,0.4,2.5,1.8
			C97.6,85.2,97,85.6,96.2,85.9z"/>
	</g>
</g>
</svg>
